<mxfile host="Electron" agent="Mozilla/5.0 (Windows NT 10.0; Win64; x64) AppleWebKit/537.36 (KHTML, like Gecko) draw.io/26.2.2 Chrome/134.0.6998.178 Electron/35.1.2 Safari/537.36" version="26.2.2">
  <diagram name="Page-1" id="1vkmLPqxpZ__lGmtXSye">
    <mxGraphModel dx="1030" dy="611" grid="1" gridSize="10" guides="1" tooltips="1" connect="1" arrows="1" fold="1" page="1" pageScale="1" pageWidth="1169" pageHeight="827" math="0" shadow="0">
      <root>
        <mxCell id="0" />
        <mxCell id="1" parent="0" />
        <mxCell id="FGeTh9XQPBHVU1j0txBr-1" value="" style="rounded=0;whiteSpace=wrap;html=1;fillColor=none;dashed=1;" parent="1" vertex="1">
          <mxGeometry x="50" y="120" width="170" height="440" as="geometry" />
        </mxCell>
        <mxCell id="FGeTh9XQPBHVU1j0txBr-2" value="&lt;font style=&quot;font-size: 24px;&quot;&gt;Sources&lt;/font&gt;" style="rounded=1;whiteSpace=wrap;html=1;strokeColor=none;" parent="1" vertex="1">
          <mxGeometry x="80" y="100" width="110" height="40" as="geometry" />
        </mxCell>
        <mxCell id="FGeTh9XQPBHVU1j0txBr-13" style="edgeStyle=orthogonalEdgeStyle;rounded=0;orthogonalLoop=1;jettySize=auto;html=1;" parent="1" source="FGeTh9XQPBHVU1j0txBr-3" target="FGeTh9XQPBHVU1j0txBr-7" edge="1">
          <mxGeometry relative="1" as="geometry" />
        </mxCell>
        <mxCell id="FGeTh9XQPBHVU1j0txBr-14" style="edgeStyle=orthogonalEdgeStyle;rounded=0;orthogonalLoop=1;jettySize=auto;html=1;" parent="1" source="FGeTh9XQPBHVU1j0txBr-3" target="FGeTh9XQPBHVU1j0txBr-8" edge="1">
          <mxGeometry relative="1" as="geometry">
            <Array as="points">
              <mxPoint x="250" y="264" />
              <mxPoint x="250" y="264" />
            </Array>
          </mxGeometry>
        </mxCell>
        <mxCell id="FGeTh9XQPBHVU1j0txBr-15" style="edgeStyle=orthogonalEdgeStyle;rounded=0;orthogonalLoop=1;jettySize=auto;html=1;entryX=0;entryY=0.75;entryDx=0;entryDy=0;" parent="1" source="FGeTh9XQPBHVU1j0txBr-3" target="FGeTh9XQPBHVU1j0txBr-9" edge="1">
          <mxGeometry relative="1" as="geometry" />
        </mxCell>
        <mxCell id="FGeTh9XQPBHVU1j0txBr-3" value="&lt;b&gt;&lt;font style=&quot;font-size: 14px;&quot;&gt;CRM&lt;/font&gt;&lt;/b&gt;" style="image;aspect=fixed;html=1;points=[];align=center;fontSize=12;image=img/lib/azure2/general/Folder_Blank.svg;" parent="1" vertex="1">
          <mxGeometry x="100.5" y="236" width="69" height="56.00000000000001" as="geometry" />
        </mxCell>
        <mxCell id="FGeTh9XQPBHVU1j0txBr-16" style="edgeStyle=orthogonalEdgeStyle;rounded=0;orthogonalLoop=1;jettySize=auto;html=1;" parent="1" source="FGeTh9XQPBHVU1j0txBr-4" target="FGeTh9XQPBHVU1j0txBr-11" edge="1">
          <mxGeometry relative="1" as="geometry" />
        </mxCell>
        <mxCell id="FGeTh9XQPBHVU1j0txBr-17" style="edgeStyle=orthogonalEdgeStyle;rounded=0;orthogonalLoop=1;jettySize=auto;html=1;" parent="1" source="FGeTh9XQPBHVU1j0txBr-4" target="FGeTh9XQPBHVU1j0txBr-12" edge="1">
          <mxGeometry relative="1" as="geometry" />
        </mxCell>
        <mxCell id="FGeTh9XQPBHVU1j0txBr-19" style="edgeStyle=orthogonalEdgeStyle;rounded=0;orthogonalLoop=1;jettySize=auto;html=1;entryX=0;entryY=0.5;entryDx=0;entryDy=0;" parent="1" source="FGeTh9XQPBHVU1j0txBr-4" target="FGeTh9XQPBHVU1j0txBr-10" edge="1">
          <mxGeometry relative="1" as="geometry" />
        </mxCell>
        <mxCell id="FGeTh9XQPBHVU1j0txBr-4" value="&lt;b&gt;&lt;font style=&quot;font-size: 14px;&quot;&gt;ERP&lt;/font&gt;&lt;/b&gt;" style="image;aspect=fixed;html=1;points=[];align=center;fontSize=12;image=img/lib/azure2/general/Folder_Blank.svg;" parent="1" vertex="1">
          <mxGeometry x="90" y="420" width="69" height="56.00000000000001" as="geometry" />
        </mxCell>
        <mxCell id="FGeTh9XQPBHVU1j0txBr-5" value="" style="rounded=1;whiteSpace=wrap;html=1;fillStyle=hatch;fillColor=#ffe6cc;strokeColor=#d79b00;" parent="1" vertex="1">
          <mxGeometry x="290" y="170" width="170" height="390" as="geometry" />
        </mxCell>
        <mxCell id="FGeTh9XQPBHVU1j0txBr-6" value="&lt;b&gt;&lt;font style=&quot;font-size: 18px;&quot;&gt;Bronze Layer&lt;/font&gt;&lt;/b&gt;" style="rounded=1;whiteSpace=wrap;html=1;fillColor=#ffe6cc;strokeColor=#d79b00;" parent="1" vertex="1">
          <mxGeometry x="290" y="120" width="170" height="40" as="geometry" />
        </mxCell>
        <mxCell id="bx5ymBYVTzLp2vhXPM2u-9" style="edgeStyle=orthogonalEdgeStyle;rounded=0;orthogonalLoop=1;jettySize=auto;html=1;entryX=0;entryY=0.5;entryDx=0;entryDy=0;" edge="1" parent="1" source="FGeTh9XQPBHVU1j0txBr-7" target="bx5ymBYVTzLp2vhXPM2u-3">
          <mxGeometry relative="1" as="geometry" />
        </mxCell>
        <mxCell id="FGeTh9XQPBHVU1j0txBr-7" value="&lt;font style=&quot;font-size: 13px;&quot;&gt;crm_sales_details&lt;/font&gt;" style="rounded=1;whiteSpace=wrap;html=1;fillColor=#ffe6cc;strokeColor=#d79b00;" parent="1" vertex="1">
          <mxGeometry x="300" y="196" width="150" height="40" as="geometry" />
        </mxCell>
        <mxCell id="bx5ymBYVTzLp2vhXPM2u-10" style="edgeStyle=orthogonalEdgeStyle;rounded=0;orthogonalLoop=1;jettySize=auto;html=1;entryX=0;entryY=0.5;entryDx=0;entryDy=0;" edge="1" parent="1" source="FGeTh9XQPBHVU1j0txBr-8" target="bx5ymBYVTzLp2vhXPM2u-4">
          <mxGeometry relative="1" as="geometry" />
        </mxCell>
        <mxCell id="FGeTh9XQPBHVU1j0txBr-8" value="&lt;font style=&quot;font-size: 13px;&quot;&gt;crm_cust_info&lt;/font&gt;" style="rounded=1;whiteSpace=wrap;html=1;fillColor=#ffe6cc;strokeColor=#d79b00;" parent="1" vertex="1">
          <mxGeometry x="300" y="247" width="150" height="40" as="geometry" />
        </mxCell>
        <mxCell id="bx5ymBYVTzLp2vhXPM2u-11" style="edgeStyle=orthogonalEdgeStyle;rounded=0;orthogonalLoop=1;jettySize=auto;html=1;entryX=0;entryY=0.5;entryDx=0;entryDy=0;" edge="1" parent="1" source="FGeTh9XQPBHVU1j0txBr-9" target="bx5ymBYVTzLp2vhXPM2u-5">
          <mxGeometry relative="1" as="geometry" />
        </mxCell>
        <mxCell id="FGeTh9XQPBHVU1j0txBr-9" value="&lt;font style=&quot;font-size: 13px;&quot;&gt;crm_prd_info&lt;/font&gt;" style="rounded=1;whiteSpace=wrap;html=1;fillColor=#ffe6cc;strokeColor=#d79b00;" parent="1" vertex="1">
          <mxGeometry x="300" y="296" width="150" height="40" as="geometry" />
        </mxCell>
        <mxCell id="bx5ymBYVTzLp2vhXPM2u-14" style="edgeStyle=orthogonalEdgeStyle;rounded=0;orthogonalLoop=1;jettySize=auto;html=1;entryX=0;entryY=0.5;entryDx=0;entryDy=0;" edge="1" parent="1" source="FGeTh9XQPBHVU1j0txBr-10" target="bx5ymBYVTzLp2vhXPM2u-6">
          <mxGeometry relative="1" as="geometry" />
        </mxCell>
        <mxCell id="FGeTh9XQPBHVU1j0txBr-10" value="&lt;font style=&quot;font-size: 13px;&quot;&gt;erp_px_cat_g1v2&lt;/font&gt;" style="rounded=1;whiteSpace=wrap;html=1;fillColor=#ffe6cc;strokeColor=#d79b00;" parent="1" vertex="1">
          <mxGeometry x="300" y="480" width="150" height="40" as="geometry" />
        </mxCell>
        <mxCell id="bx5ymBYVTzLp2vhXPM2u-13" style="edgeStyle=orthogonalEdgeStyle;rounded=0;orthogonalLoop=1;jettySize=auto;html=1;entryX=0;entryY=0.5;entryDx=0;entryDy=0;" edge="1" parent="1" source="FGeTh9XQPBHVU1j0txBr-11" target="bx5ymBYVTzLp2vhXPM2u-7">
          <mxGeometry relative="1" as="geometry" />
        </mxCell>
        <mxCell id="FGeTh9XQPBHVU1j0txBr-11" value="&lt;font style=&quot;font-size: 13px;&quot;&gt;erp_loc_a101&lt;/font&gt;" style="rounded=1;whiteSpace=wrap;html=1;fillColor=#ffe6cc;strokeColor=#d79b00;" parent="1" vertex="1">
          <mxGeometry x="300" y="428" width="150" height="40" as="geometry" />
        </mxCell>
        <mxCell id="bx5ymBYVTzLp2vhXPM2u-12" style="edgeStyle=orthogonalEdgeStyle;rounded=0;orthogonalLoop=1;jettySize=auto;html=1;entryX=0;entryY=0.5;entryDx=0;entryDy=0;" edge="1" parent="1" source="FGeTh9XQPBHVU1j0txBr-12" target="bx5ymBYVTzLp2vhXPM2u-8">
          <mxGeometry relative="1" as="geometry" />
        </mxCell>
        <mxCell id="FGeTh9XQPBHVU1j0txBr-12" value="&lt;font style=&quot;font-size: 13px;&quot;&gt;erp_cust_az12&lt;/font&gt;" style="rounded=1;whiteSpace=wrap;html=1;fillColor=#ffe6cc;strokeColor=#d79b00;" parent="1" vertex="1">
          <mxGeometry x="300" y="380" width="150" height="40" as="geometry" />
        </mxCell>
        <mxCell id="bx5ymBYVTzLp2vhXPM2u-1" value="" style="rounded=1;whiteSpace=wrap;html=1;fillStyle=auto;fillColor=light-dark(#ede8e8, #36210a);strokeColor=light-dark(#120202, #996500);" vertex="1" parent="1">
          <mxGeometry x="510" y="170" width="170" height="390" as="geometry" />
        </mxCell>
        <mxCell id="bx5ymBYVTzLp2vhXPM2u-2" value="&lt;b&gt;&lt;font style=&quot;font-size: 18px;&quot;&gt;Silver Layer&lt;/font&gt;&lt;/b&gt;" style="rounded=1;whiteSpace=wrap;html=1;fillColor=#f5f5f5;strokeColor=#666666;gradientColor=#b3b3b3;" vertex="1" parent="1">
          <mxGeometry x="510" y="120" width="170" height="40" as="geometry" />
        </mxCell>
        <mxCell id="bx5ymBYVTzLp2vhXPM2u-3" value="&lt;font style=&quot;font-size: 13px;&quot;&gt;crm_sales_details&lt;/font&gt;" style="rounded=1;whiteSpace=wrap;html=1;fillColor=#f5f5f5;strokeColor=#666666;gradientColor=#b3b3b3;" vertex="1" parent="1">
          <mxGeometry x="520" y="196" width="150" height="40" as="geometry" />
        </mxCell>
        <mxCell id="bx5ymBYVTzLp2vhXPM2u-4" value="&lt;font style=&quot;font-size: 13px;&quot;&gt;crm_cust_info&lt;/font&gt;" style="rounded=1;whiteSpace=wrap;html=1;fillColor=#f5f5f5;strokeColor=#666666;gradientColor=#b3b3b3;" vertex="1" parent="1">
          <mxGeometry x="520" y="247" width="150" height="40" as="geometry" />
        </mxCell>
        <mxCell id="bx5ymBYVTzLp2vhXPM2u-5" value="&lt;font style=&quot;font-size: 13px;&quot;&gt;crm_prd_info&lt;/font&gt;" style="rounded=1;whiteSpace=wrap;html=1;fillColor=#f5f5f5;strokeColor=#666666;gradientColor=#b3b3b3;" vertex="1" parent="1">
          <mxGeometry x="520" y="296" width="150" height="40" as="geometry" />
        </mxCell>
        <mxCell id="bx5ymBYVTzLp2vhXPM2u-6" value="&lt;font style=&quot;font-size: 13px;&quot;&gt;erp_px_cat_g1v2&lt;/font&gt;" style="rounded=1;whiteSpace=wrap;html=1;fillColor=#f5f5f5;strokeColor=#666666;gradientColor=#b3b3b3;" vertex="1" parent="1">
          <mxGeometry x="520" y="480" width="150" height="40" as="geometry" />
        </mxCell>
        <mxCell id="bx5ymBYVTzLp2vhXPM2u-7" value="&lt;font style=&quot;font-size: 13px;&quot;&gt;erp_loc_a101&lt;/font&gt;" style="rounded=1;whiteSpace=wrap;html=1;fillColor=#f5f5f5;strokeColor=#666666;gradientColor=#b3b3b3;" vertex="1" parent="1">
          <mxGeometry x="520" y="428" width="150" height="40" as="geometry" />
        </mxCell>
        <mxCell id="bx5ymBYVTzLp2vhXPM2u-8" value="&lt;font style=&quot;font-size: 13px;&quot;&gt;erp_cust_az12&lt;/font&gt;" style="rounded=1;whiteSpace=wrap;html=1;fillColor=#f5f5f5;strokeColor=#666666;gradientColor=#b3b3b3;" vertex="1" parent="1">
          <mxGeometry x="520" y="380" width="150" height="40" as="geometry" />
        </mxCell>
        <mxCell id="bx5ymBYVTzLp2vhXPM2u-15" value="" style="rounded=1;whiteSpace=wrap;html=1;fillStyle=hatch;fillColor=#ffe6cc;strokeColor=light-dark(#756c0b, #996500);" vertex="1" parent="1">
          <mxGeometry x="780" y="170" width="170" height="390" as="geometry" />
        </mxCell>
        <mxCell id="bx5ymBYVTzLp2vhXPM2u-16" value="&lt;b&gt;&lt;font style=&quot;font-size: 18px;&quot;&gt;Gold Layer&lt;/font&gt;&lt;/b&gt;" style="rounded=1;whiteSpace=wrap;html=1;fillColor=#e3c800;strokeColor=#B09500;fontColor=#000000;" vertex="1" parent="1">
          <mxGeometry x="780" y="120" width="170" height="40" as="geometry" />
        </mxCell>
        <mxCell id="bx5ymBYVTzLp2vhXPM2u-17" value="&lt;font style=&quot;font-size: 13px;&quot;&gt;fact_sales&lt;/font&gt;" style="rounded=1;whiteSpace=wrap;html=1;fillColor=#e3c800;strokeColor=#B09500;fontColor=#000000;" vertex="1" parent="1">
          <mxGeometry x="790" y="220" width="150" height="40" as="geometry" />
        </mxCell>
        <mxCell id="bx5ymBYVTzLp2vhXPM2u-18" value="&lt;font style=&quot;font-size: 13px;&quot;&gt;dim_customers&lt;/font&gt;" style="rounded=1;whiteSpace=wrap;html=1;fillColor=#e3c800;strokeColor=#B09500;fontColor=#000000;" vertex="1" parent="1">
          <mxGeometry x="790" y="296" width="150" height="40" as="geometry" />
        </mxCell>
        <mxCell id="bx5ymBYVTzLp2vhXPM2u-19" value="&lt;font style=&quot;font-size: 13px;&quot;&gt;dim_products&lt;/font&gt;" style="rounded=1;whiteSpace=wrap;html=1;fillColor=#e3c800;strokeColor=#B09500;fontColor=#000000;" vertex="1" parent="1">
          <mxGeometry x="790" y="374" width="150" height="40" as="geometry" />
        </mxCell>
        <mxCell id="bx5ymBYVTzLp2vhXPM2u-29" value="" style="endArrow=classic;html=1;rounded=0;entryX=0.059;entryY=0.179;entryDx=0;entryDy=0;entryPerimeter=0;" edge="1" parent="1" target="bx5ymBYVTzLp2vhXPM2u-15">
          <mxGeometry width="50" height="50" relative="1" as="geometry">
            <mxPoint x="680" y="220" as="sourcePoint" />
            <mxPoint x="730" y="170" as="targetPoint" />
          </mxGeometry>
        </mxCell>
        <mxCell id="bx5ymBYVTzLp2vhXPM2u-30" value="" style="endArrow=classic;html=1;rounded=0;entryX=0;entryY=0.5;entryDx=0;entryDy=0;jumpStyle=gap;" edge="1" parent="1" target="bx5ymBYVTzLp2vhXPM2u-18">
          <mxGeometry width="50" height="50" relative="1" as="geometry">
            <mxPoint x="670" y="270" as="sourcePoint" />
            <mxPoint x="780" y="350" as="targetPoint" />
          </mxGeometry>
        </mxCell>
        <mxCell id="bx5ymBYVTzLp2vhXPM2u-32" value="" style="endArrow=classic;html=1;rounded=0;entryX=0;entryY=0.75;entryDx=0;entryDy=0;jumpStyle=gap;" edge="1" parent="1" target="bx5ymBYVTzLp2vhXPM2u-18">
          <mxGeometry width="50" height="50" relative="1" as="geometry">
            <mxPoint x="670" y="395" as="sourcePoint" />
            <mxPoint x="790" y="432" as="targetPoint" />
          </mxGeometry>
        </mxCell>
        <mxCell id="bx5ymBYVTzLp2vhXPM2u-33" value="" style="endArrow=classic;html=1;rounded=0;entryX=0;entryY=1;entryDx=0;entryDy=0;jumpStyle=gap;" edge="1" parent="1" target="bx5ymBYVTzLp2vhXPM2u-18">
          <mxGeometry width="50" height="50" relative="1" as="geometry">
            <mxPoint x="670" y="439" as="sourcePoint" />
            <mxPoint x="790" y="320" as="targetPoint" />
          </mxGeometry>
        </mxCell>
        <mxCell id="bx5ymBYVTzLp2vhXPM2u-34" value="" style="endArrow=classic;html=1;rounded=0;entryX=0;entryY=1;entryDx=0;entryDy=0;jumpStyle=gap;" edge="1" parent="1" target="bx5ymBYVTzLp2vhXPM2u-19">
          <mxGeometry width="50" height="50" relative="1" as="geometry">
            <mxPoint x="670" y="499" as="sourcePoint" />
            <mxPoint x="790" y="380" as="targetPoint" />
          </mxGeometry>
        </mxCell>
        <mxCell id="bx5ymBYVTzLp2vhXPM2u-35" value="" style="endArrow=classic;html=1;rounded=0;entryX=0.059;entryY=0.564;entryDx=0;entryDy=0;entryPerimeter=0;jumpStyle=gap;" edge="1" parent="1" target="bx5ymBYVTzLp2vhXPM2u-15">
          <mxGeometry width="50" height="50" relative="1" as="geometry">
            <mxPoint x="670" y="321.5" as="sourcePoint" />
            <mxPoint x="790" y="358.5" as="targetPoint" />
          </mxGeometry>
        </mxCell>
      </root>
    </mxGraphModel>
  </diagram>
</mxfile>
